<svg width="330" height="38" viewBox="0 0 330 38" fill="none" xmlns="http://www.w3.org/2000/svg">
<path d="M19.6898 0.519997V23.88C19.6898 27.1227 19.3911 29.7467 18.7938 31.752C18.1964 33.7573 17.1298 35.272 15.5938 36.296C14.1004 37.32 11.9884 37.832 9.25775 37.832C6.35642 37.832 3.30575 37.5547 0.10575 37L1.06575 29.64C2.26042 29.6827 3.62575 29.6613 5.16175 29.576C6.69775 29.4907 7.57242 29.32 7.78575 29.064C8.04175 28.6373 8.16975 27.6133 8.16975 25.992C8.16975 24.3707 8.16975 23.4533 8.16975 23.24V0.519997H19.6898ZM25.6613 0.519997H52.2213V8.2H37.1813V14.856H49.8533V21.768H37.1813V29.192H52.1573V37H25.6613V0.519997ZM90.3223 37H78.2263L76.0503 27.784C75.9649 27.4427 75.8156 26.8667 75.6023 26.056C75.4316 25.2027 75.2183 24.584 74.9623 24.2C74.7063 23.7733 74.3436 23.496 73.8743 23.368C72.6796 23.4107 70.9303 23.432 68.6263 23.432V37H57.1063V0.84C62.2689 0.456 67.0903 0.264 71.5703 0.264C75.6236 0.264 78.9089 0.605333 81.4263 1.288C83.9436 1.928 85.8209 3.05866 87.0583 4.68C88.3383 6.25867 88.9783 8.43467 88.9783 11.208C88.9783 13.8107 88.3809 15.8587 87.1863 17.352C85.9916 18.8027 84.0716 19.6773 81.4263 19.976V20.36C82.9196 20.488 84.1569 20.9787 85.1383 21.832C86.1623 22.6427 86.8449 23.688 87.1863 24.968L90.3223 37ZM68.6263 16.2C69.0103 16.2427 69.7569 16.264 70.8663 16.264C74.1516 16.264 76.0716 15.9867 76.6263 15.432C77.1383 14.92 77.3943 13.7253 77.3943 11.848C77.3943 10.0987 76.9249 8.904 75.9863 8.264C75.0903 7.624 73.5969 7.304 71.5063 7.304C71.0369 7.304 70.0769 7.34667 68.6263 7.432V16.2ZM104.727 10.376C104.727 11.272 105.175 11.976 106.071 12.488C107.01 13 108.461 13.5547 110.423 14.152C112.77 14.92 114.69 15.6667 116.183 16.392C117.719 17.1173 119.042 18.248 120.151 19.784C121.303 21.32 121.879 23.3253 121.879 25.8C121.879 33.736 116.717 37.704 106.391 37.704C104.685 37.704 102.594 37.5547 100.119 37.256C97.6873 36.9573 95.4686 36.5733 93.4633 36.104C93.5486 35.208 93.7193 33.9067 93.9753 32.2C94.2739 30.4507 94.5513 29.1493 94.8073 28.296C96.3006 28.5093 98.5406 28.7653 101.527 29.064C104.557 29.3627 106.839 29.512 108.375 29.512C109.271 29.512 109.805 29.448 109.975 29.32C110.231 29.1493 110.423 28.872 110.551 28.488C110.722 28.0613 110.807 27.6987 110.807 27.4C110.807 26.5467 110.402 25.9067 109.591 25.48C108.781 25.0107 107.394 24.456 105.431 23.816C103.085 23.0907 101.143 22.344 99.6073 21.576C98.0713 20.808 96.7273 19.6133 95.5753 17.992C94.4233 16.3707 93.8473 14.2373 93.8473 11.592C93.8473 9.71467 94.2739 7.88 95.1273 6.088C95.9806 4.25333 96.8553 3.016 97.7513 2.376C98.4339 1.90666 99.8419 1.45866 101.975 1.032C104.109 0.605331 106.114 0.391998 107.991 0.391998C112.77 0.391998 116.674 0.839999 119.703 1.736C119.661 2.58933 119.511 3.76267 119.255 5.256C119.042 6.74933 118.807 8.11467 118.551 9.352L117.079 9.288C111.533 8.904 107.991 8.712 106.455 8.712C105.815 8.712 105.453 8.73333 105.367 8.776C105.197 8.86133 105.047 9.05333 104.919 9.352C104.791 9.65067 104.727 9.992 104.727 10.376ZM126.849 0.519997H153.409V8.2H138.369V14.856H151.041V21.768H138.369V29.192H153.345V37H126.849V0.519997ZM178.454 25.352V37H166.934V25.48L154.646 0.519997H166.358L171.222 12.36C171.734 13.5547 172.203 14.8133 172.63 16.136H172.758C173.227 14.6853 173.696 13.384 174.166 12.232L178.966 0.519997H190.614L178.454 25.352ZM193.42 0.519997H205.004V13.896H214.924V0.519997H226.508V37H214.924V21.256H205.004V37H193.42V0.519997ZM253.141 25.352V37H241.621V25.48L229.333 0.519997H241.045L245.909 12.36C246.421 13.5547 246.891 14.8133 247.317 16.136H247.445C247.915 14.6853 248.384 13.384 248.853 12.232L253.653 0.519997H265.301L253.141 25.352ZM282.764 0.327999C286.22 0.327999 289.142 0.647999 291.532 1.288C293.921 1.928 295.82 3.16533 297.228 5C298.678 6.792 299.404 9.37333 299.404 12.744C299.404 14.2373 299.169 15.7733 298.7 17.352C298.273 18.888 297.718 20.232 297.036 21.384C296.396 22.536 295.82 23.2827 295.308 23.624C294.71 24.0507 293.388 24.392 291.34 24.648C289.292 24.8613 286.881 24.968 284.108 24.968C283.126 24.968 281.612 24.9253 279.564 24.84V37H268.044V0.519997C272.524 0.391998 277.43 0.327999 282.764 0.327999ZM287.564 16.776C287.99 16.2213 288.204 15.112 288.204 13.448C288.204 11.272 287.734 9.736 286.796 8.84C285.9 7.944 284.321 7.496 282.06 7.496C281.292 7.496 280.46 7.56 279.564 7.688V17.416C279.99 17.4587 280.822 17.48 282.06 17.48C285.345 17.48 287.18 17.2453 287.564 16.776ZM303.161 0.519997H329.721V8.2H314.681V14.856H327.353V21.768H314.681V29.192H329.657V37H303.161V0.519997Z" fill="#00FF84"/>
</svg>
